<svg width="46" height="47" viewBox="0 0 46 47" fill="none" xmlns="http://www.w3.org/2000/svg">
<g clip-path="url(#clip0_342_9516)">
<path d="M31.8533 0.978516C31.9604 0.978516 32.0674 0.978516 32.1805 0.978516C32.4431 4.22253 31.2049 6.64646 29.7001 8.40178C28.2235 10.145 26.2015 11.8357 22.9312 11.5791C22.7131 8.38158 23.9533 6.13743 25.4562 4.38615C26.8499 2.75404 29.4051 1.30171 31.8533 0.978516Z" fill="black"/>
<path d="M41.7521 34.7431C41.7521 34.7754 41.7521 34.8037 41.7521 34.834C40.8331 37.6175 39.5221 40.003 37.9223 42.2169C36.4619 44.2267 34.6723 46.9314 31.4767 46.9314C28.7155 46.9314 26.8814 45.1559 24.0514 45.1074C21.0579 45.0589 19.4116 46.592 16.6746 46.9778C16.3615 46.9778 16.0484 46.9778 15.7414 46.9778C13.7316 46.687 12.1096 45.0953 10.9279 43.6611C7.44352 39.4233 4.75094 33.9493 4.25 26.9441C4.25 26.2573 4.25 25.5726 4.25 24.8858C4.46209 19.8723 6.89814 15.7961 10.1361 13.8206C11.845 12.7702 14.1941 11.8754 16.81 12.2753C17.931 12.4491 19.0763 12.8328 20.0802 13.2126C21.0316 13.5782 22.2214 14.2266 23.3485 14.1923C24.112 14.17 24.8715 13.7721 25.6411 13.4913C27.8954 12.6773 30.1052 11.7441 33.0179 12.1824C36.5185 12.7116 39.003 14.267 40.5381 16.6667C37.5769 18.5513 35.2358 21.3913 35.6358 26.2412C35.9913 30.6467 38.5526 33.2241 41.7521 34.7431Z" fill="black"/>
</g>
<defs>
<clipPath id="clip0_342_9516">
<rect width="46" height="46" fill="white" transform="translate(0 0.978516)"/>
</clipPath>
</defs>
</svg>
