<svg width="40" height="40" viewBox="0 0 40 40" fill="none" xmlns="http://www.w3.org/2000/svg">
<g clip-path="url(#clip0_342_9852)">
<path d="M29.9678 26.7672C30.2833 24.5253 30.44 22.264 30.4365 20C30.44 17.736 30.2833 15.4747 29.9678 13.2328H38.831C40.3974 17.6083 40.3974 22.3917 38.831 26.7672H29.9678ZM20.0029 40C18.0498 40 16.056 37.9953 14.5271 34.5008C13.8287 32.9047 13.2599 31.0852 12.8342 29.1102H27.1717C26.7459 31.0844 26.1771 32.9039 25.4787 34.5008C23.9498 37.9953 21.956 40 20.0029 40ZM12.406 26.7672C11.7477 22.2797 11.7477 17.7203 12.406 13.2328H27.5998C27.9327 15.4731 28.0978 17.7351 28.0935 20C28.0978 22.2649 27.9327 24.5269 27.5998 26.7672H12.406ZM1.17478 26.7672C-0.391595 22.3917 -0.391595 17.6083 1.17478 13.2328H10.0381C9.41203 17.7226 9.41203 22.2774 10.0381 26.7672H1.17478ZM20.0029 0C21.956 0 23.9498 2.00391 25.4787 5.49922C26.1771 7.09531 26.7459 8.91484 27.1717 10.8898H12.8342C13.2599 8.91562 13.8287 7.09609 14.5271 5.49922C16.056 2.00391 18.0498 0 20.0029 0ZM37.8154 10.8891H29.5638C29.0951 8.56875 28.4435 6.42734 27.6263 4.56094C26.9646 3.04688 26.2146 1.76484 25.3935 0.732031C28.056 1.46935 30.5356 2.75333 32.6744 4.5021C34.8131 6.25088 36.564 8.42609 37.8154 10.8891ZM14.6123 0.73125C13.7935 1.76484 13.0443 3.04609 12.3818 4.55937C11.5646 6.42734 10.9138 8.56875 10.4443 10.8875H2.19041C3.44213 8.42481 5.19313 6.24987 7.33182 4.50126C9.47051 2.75264 11.95 1.4687 14.6123 0.73125ZM2.19041 29.1109H10.442C10.9107 31.4312 11.5623 33.5727 12.3795 35.4391C13.042 36.9523 13.7912 38.2336 14.6099 39.2672C11.948 38.5297 9.46885 37.2457 7.33055 35.4971C5.19225 33.7484 3.44168 31.5735 2.19041 29.1109ZM25.3935 39.2672C26.2123 38.2336 26.9623 36.9523 27.624 35.4391C28.4412 33.5711 29.092 31.4297 29.5615 29.1109H37.8154C36.564 31.574 34.8131 33.7493 32.6744 35.4982C30.5357 37.2471 28.056 38.5313 25.3935 39.2688V39.2672Z" fill="#0B57CF"/>
</g>
<defs>
<clipPath id="clip0_342_9852">
<rect width="40" height="40" fill="white"/>
</clipPath>
</defs>
</svg>
