<svg width="40" height="40" viewBox="0 0 40 40" fill="none" xmlns="http://www.w3.org/2000/svg">
<path d="M0 12.1816V34.1941L14.4612 21.0994L0 12.1816Z" fill="#0B57CF"/>
<path d="M23.4054 22.377L20.5864 24.1154C20.3982 24.2315 20.1852 24.2895 19.9723 24.2895C19.7593 24.2895 19.5464 24.2315 19.3582 24.1154L16.5391 22.377L1.625 35.8818H38.3195L23.4054 22.377Z" fill="#0B57CF"/>
<path d="M1.5 10.3574L19.9665 21.7451L25.5707 18.2893C23.8797 16.535 22.8381 14.1508 22.8381 11.5275C22.8381 11.1316 22.8624 10.7413 22.9085 10.3575H1.5V10.3574Z" fill="#0B57CF"/>
<path d="M32.591 21.2786C30.7302 21.2786 28.9896 20.7543 27.5087 19.846L25.4766 21.0992L39.9377 34.194V17.9316C38.1489 19.9813 35.5187 21.2786 32.591 21.2786Z" fill="#0B57CF"/>
<path d="M32.5898 4.11719C28.4973 4.11719 25.1797 7.43481 25.1797 11.5273C25.1797 15.6198 28.4973 18.9374 32.5898 18.9374C36.6823 18.9374 39.9999 15.6198 39.9999 11.5273C39.9999 7.43481 36.6822 4.11719 32.5898 4.11719ZM33.9303 14.2399C33.9303 14.886 33.4065 15.4099 32.7603 15.4099C32.1141 15.4099 31.5903 14.886 31.5903 14.2399V10.8506C31.1089 10.9775 30.5807 10.785 30.3019 10.3409C29.9583 9.79364 30.1234 9.07143 30.6707 8.72784L32.1382 7.80641C32.4986 7.58005 32.9537 7.56733 33.3264 7.77333C33.699 7.97941 33.9303 8.37153 33.9303 8.79726V14.2399Z" fill="#0B57CF"/>
</svg>
