<svg width="40" height="40" viewBox="0 0 40 40" fill="none" xmlns="http://www.w3.org/2000/svg">
<path d="M33.265 20.9812V17.9518C33.265 17.3989 33.1561 16.8514 32.9445 16.3405C32.7329 15.8296 32.4227 15.3655 32.0317 14.9745C31.6407 14.5835 31.1766 14.2733 30.6657 14.0617C30.1549 13.8501 29.6073 13.7412 29.0544 13.7412C28.5014 13.7412 27.9539 13.8501 27.443 14.0617C26.9322 14.2733 26.468 14.5835 26.077 14.9745C25.686 15.3655 25.3759 15.8296 25.1643 16.3405C24.9527 16.8514 24.8437 17.3989 24.8438 17.9518V20.9812H26.3831V17.9493C26.3831 17.2409 26.6646 16.5614 27.1655 16.0605C27.6665 15.5595 28.3459 15.2781 29.0544 15.2781C29.7628 15.2781 30.4423 15.5595 30.9432 16.0605C31.4442 16.5614 31.7256 17.2409 31.7256 17.9493V20.9812H33.265Z" fill="#0B57CF"/>
<path d="M27.6328 17.9486V20.9817H30.4753V17.9486C30.4753 17.5717 30.3256 17.2102 30.059 16.9436C29.7925 16.6771 29.431 16.5273 29.0541 16.5273C28.6771 16.5273 28.3156 16.6771 28.0491 16.9436C27.7826 17.2102 27.6328 17.5717 27.6328 17.9486Z" fill="#0B57CF"/>
<path d="M19.8875 37.4324C22.1684 36.3022 24.2231 34.7639 25.95 32.8937H22.9512C22.5468 32.8932 22.159 32.7323 21.873 32.4463C21.587 32.1603 21.4261 31.7725 21.4256 31.368V22.5074C21.4263 22.1056 21.5853 21.7203 21.8682 21.4351C22.1511 21.1498 22.5351 20.9876 22.9369 20.9837C22.9417 20.9834 22.9465 20.9834 22.9512 20.9837H23.5956V17.9511C23.5942 16.6947 24.0261 15.4762 24.8186 14.5013C25.6111 13.5263 26.7156 12.8545 27.9459 12.5993C29.1761 12.344 30.4567 12.5209 31.5717 13.1001C32.6867 13.6793 33.5677 14.6253 34.0662 15.7787C34.5281 13.6638 34.8559 11.5218 35.0475 9.36552C34.2814 9.45155 33.5058 9.38113 32.7678 9.15853C32.0297 8.93593 31.3445 8.56578 30.7537 8.07052C29.654 6.98812 28.9977 5.53437 28.9131 3.99365C23.0172 2.0005 16.6284 2.00753 10.7369 4.01365C10.6616 5.55971 10.0109 7.02172 8.9125 8.1124C8.32364 8.60957 7.6401 8.9822 6.90318 9.20779C6.16626 9.43338 5.39126 9.50723 4.625 9.4249C4.97125 13.2611 7.2575 31.333 19.8875 37.4324ZM13.3031 25.9018C13.3853 26.0457 13.407 26.2165 13.3633 26.3764C13.3197 26.5363 13.2143 26.6724 13.0703 26.7546C12.9263 26.8368 12.7556 26.8585 12.5957 26.8148C12.4358 26.7711 12.2997 26.6657 12.2175 26.5218C9.405 21.5918 8.0925 16.0105 7.49062 12.1974C7.46733 12.0507 7.49706 11.9005 7.57449 11.7737C7.65191 11.6469 7.77196 11.5518 7.91312 11.5055C9.05284 11.1397 10.0859 10.501 10.9225 9.6449C11.8379 8.69409 12.5036 7.53134 12.86 6.26052C12.8905 6.15711 12.9472 6.06334 13.0246 5.98832C13.102 5.91331 13.1976 5.85959 13.3019 5.8324C15.4375 5.28181 17.6339 5.00211 19.8394 4.9999C22.0419 4.99928 24.2354 5.28116 26.3662 5.83865C26.4693 5.86611 26.5635 5.91946 26.6401 5.99362C26.7167 6.06779 26.773 6.16032 26.8037 6.2624C27.0713 7.16856 27.4911 8.02261 28.045 8.78802C28.143 8.92179 28.1838 9.089 28.1585 9.25286C28.1331 9.41672 28.0438 9.56381 27.91 9.66177C27.7762 9.75974 27.609 9.80055 27.4452 9.77523C27.2813 9.74992 27.1342 9.66054 27.0362 9.52677C26.4682 8.74489 26.0231 7.88073 25.7162 6.96427C23.7933 6.48978 21.82 6.24991 19.8394 6.2499C17.8552 6.25207 15.8783 6.48957 13.95 6.9574C13.5219 8.29293 12.792 9.51193 11.8169 10.5199C10.9677 11.3914 9.94179 12.071 8.80813 12.513C9.42875 16.198 10.7044 21.3499 13.3031 25.9018Z" fill="#0B57CF"/>
<path d="M29.0534 28.3249C29.3686 28.325 29.6766 28.2317 29.9387 28.0567C30.2008 27.8818 30.4051 27.633 30.5257 27.3419C30.6464 27.0508 30.6781 26.7305 30.6167 26.4214C30.5553 26.1123 30.4036 25.8284 30.1808 25.6055C29.958 25.3826 29.6741 25.2309 29.3651 25.1693C29.056 25.1078 28.7357 25.1393 28.4445 25.2599C28.1534 25.3804 27.9046 25.5846 27.7295 25.8466C27.5544 26.1086 27.4609 26.4167 27.4609 26.7318C27.4613 27.1541 27.6291 27.559 27.9277 27.8577C28.2263 28.1564 28.6311 28.3244 29.0534 28.3249Z" fill="#0B57CF"/>
<path d="M22.6719 22.508V31.3687C22.672 31.4417 22.7011 31.5117 22.7528 31.5634C22.8044 31.615 22.8744 31.6441 22.9475 31.6443H35.1575C35.1937 31.6443 35.2295 31.6372 35.263 31.6233C35.2964 31.6095 35.3268 31.5892 35.3524 31.5636C35.378 31.538 35.3983 31.5076 35.4121 31.4742C35.426 31.4407 35.4331 31.4049 35.4331 31.3687V22.508C35.4331 22.4719 35.426 22.436 35.4121 22.4026C35.3983 22.3691 35.378 22.3387 35.3524 22.3132C35.3268 22.2876 35.2964 22.2673 35.263 22.2534C35.2295 22.2396 35.1937 22.2324 35.1575 22.2324H22.9475C22.8744 22.2326 22.8044 22.2617 22.7528 22.3133C22.7011 22.365 22.672 22.435 22.6719 22.508ZM32.9487 25.3412C32.9487 25.1754 33.0146 25.0164 33.1318 24.8992C33.249 24.782 33.408 24.7162 33.5737 24.7162C33.7395 24.7162 33.8985 24.782 34.0157 24.8992C34.1329 25.0164 34.1987 25.1754 34.1987 25.3412V28.1255C34.1987 28.2913 34.1329 28.4503 34.0157 28.5675C33.8985 28.6847 33.7395 28.7505 33.5737 28.7505C33.408 28.7505 33.249 28.6847 33.1318 28.5675C33.0146 28.4503 32.9487 28.2913 32.9487 28.1255V25.3412ZM27.125 24.658C27.1587 24.6227 27.1965 24.5915 27.2375 24.5649C27.7444 24.132 28.3884 23.8928 29.055 23.8899C29.7232 23.8847 30.3721 24.1132 30.8896 24.5359C31.4071 24.9585 31.7607 25.5488 31.889 26.2045C32.0174 26.8602 31.9125 27.5402 31.5925 28.1268C31.2725 28.7134 30.7576 29.1697 30.1368 29.4168C29.516 29.6638 28.8283 29.6862 28.1928 29.4799C27.5572 29.2736 27.0138 28.8516 26.6565 28.287C26.2991 27.7224 26.1504 27.0507 26.2359 26.388C26.3215 25.7253 26.636 25.1134 27.125 24.658ZM23.9062 25.3412C23.9062 25.1754 23.9721 25.0164 24.0893 24.8992C24.2065 24.782 24.3655 24.7162 24.5312 24.7162C24.697 24.7162 24.856 24.782 24.9732 24.8992C25.0904 25.0164 25.1562 25.1754 25.1562 25.3412V28.1255C25.1562 28.2913 25.0904 28.4503 24.9732 28.5675C24.856 28.6847 24.697 28.7505 24.5312 28.7505C24.3655 28.7505 24.2065 28.6847 24.0893 28.5675C23.9721 28.4503 23.9062 28.2913 23.9062 28.1255V25.3412Z" fill="#0B57CF"/>
</svg>
