<svg width="40" height="40" viewBox="0 0 40 40" fill="none" xmlns="http://www.w3.org/2000/svg">
<path fill-rule="evenodd" clip-rule="evenodd" d="M5.05258 16.5014L12.404 10.0673C12.3021 9.78902 12.2466 9.48855 12.2466 9.17504C12.2466 7.7416 13.4086 6.57965 14.842 6.57965C16.248 6.57965 17.3927 7.69762 17.4361 9.09309L23.2464 11.1273C23.7224 10.5685 24.4312 10.214 25.2227 10.214C25.6694 10.214 26.0896 10.3268 26.4566 10.5255L33.1549 4.80246C33.0599 4.53262 33.008 4.24246 33.008 3.94012C33.008 2.50676 34.1701 1.34473 35.6034 1.34473C37.037 1.34473 38.199 2.50676 38.199 3.94012C38.199 5.37363 37.037 6.53566 35.6034 6.53566C35.1569 6.53566 34.7366 6.42285 34.3697 6.22418L27.6713 11.9472C27.7663 12.2171 27.8182 12.5072 27.8182 12.8096C27.8182 14.2429 26.6562 15.405 25.2227 15.405C23.8167 15.405 22.672 14.287 22.6287 12.8916L16.8184 10.8574C16.3423 11.4162 15.6336 11.7707 14.842 11.7707C14.4061 11.7707 13.9955 11.6631 13.6348 11.4732L6.28344 17.9073C6.38531 18.1855 6.44086 18.4861 6.44086 18.7996C6.44086 20.2331 5.27883 21.395 3.84531 21.395C2.41203 21.3948 1.25 20.2329 1.25 18.7994C1.25 17.3659 2.41203 16.204 3.84539 16.204C4.28125 16.204 4.69195 16.3115 5.05258 16.5014ZM33.6291 11.6612C32.9837 11.6612 32.4572 12.1876 32.4572 12.8331V36.7493C32.4572 37.3948 32.9837 37.9212 33.6291 37.9212H37.5781C38.2237 37.9212 38.7501 37.3948 38.7501 36.7493V12.8331C38.7501 12.1876 38.2238 11.6612 37.5781 11.6612H33.6291ZM23.2482 21.2182C22.6027 21.2182 22.0764 21.7446 22.0764 22.3901V36.9943C22.0764 37.6399 22.6028 38.1662 23.2482 38.1662H27.1974C27.8429 38.1662 28.3692 37.6398 28.3692 36.9943C28.3692 32.1264 28.3692 27.2582 28.3692 22.3901C28.3692 21.7446 27.8429 21.2182 27.1974 21.2182C25.8809 21.2182 24.5647 21.2182 23.2482 21.2182ZM12.8675 17.7872C12.222 17.7872 11.6955 18.3136 11.6955 18.9591V37.2393C11.6955 37.8848 12.2219 38.4112 12.8675 38.4112H16.8166C17.462 38.4112 17.9884 37.8848 17.9884 37.2393V18.9591C17.9884 18.3136 17.462 17.7872 16.8166 17.7872H12.8675ZM2.48672 27.8745H6.4357C7.08117 27.8745 7.60766 28.4009 7.60766 29.0464V37.4843C7.60766 38.1297 7.08117 38.6561 6.4357 38.6561H2.48672C1.84125 38.6561 1.31477 38.1297 1.31477 37.4843V29.0464C1.31484 28.4008 1.84133 27.8745 2.48672 27.8745Z" fill="#0B57CF"/>
</svg>
