<svg width="40" height="40" viewBox="0 0 40 40" fill="none" xmlns="http://www.w3.org/2000/svg">
<path d="M33.375 33.1375C33.375 30.6375 31.0125 28.4625 27.0875 27.25C29.7625 23.1625 32.5 17.7125 32.5 12.5C32.5 5.61249 26.8875 0 20 0C13.1 0 7.50001 5.61249 7.50001 12.5C7.50001 17.7125 10.2375 23.1625 12.9125 27.25C8.98751 28.4625 6.625 30.6375 6.625 33.1375C6.76247 42.2874 33.2376 42.2874 33.375 33.1375ZM20 5.1625C24.05 5.1625 27.3375 8.46244 27.3375 12.5C27.3375 16.55 24.05 19.8375 20 19.8375C15.95 19.8375 12.6625 16.55 12.6625 12.5C12.6625 8.46245 15.95 5.1625 20 5.1625ZM20 37.375C10.6375 37.2874 4.37501 32.4625 14.5125 29.5625C15.85 31.375 17.2625 33.1375 18.775 34.7874C19.425 35.7 20.5625 35.7 21.225 34.7874C22.7375 33.1375 24.15 31.375 25.4875 29.5625C35.625 32.4625 29.3625 37.2874 20 37.375Z" fill="#0B57CF"/>
<path d="M19.9984 17.1754C22.5734 17.1754 24.6609 15.0754 24.6609 12.5004C24.6609 9.92544 22.5734 7.83789 19.9984 7.83789C17.4234 7.83789 15.3359 9.92544 15.3359 12.5004C15.3359 15.0754 17.4234 17.1754 19.9984 17.1754Z" fill="#0B57CF"/>
</svg>
