<svg width="40" height="40" viewBox="0 0 40 40" fill="none" xmlns="http://www.w3.org/2000/svg">
<path d="M36.5125 14.8006C35.7831 14.6946 35.087 14.4255 34.4761 14.0133C33.8651 13.601 33.355 13.0562 32.9838 12.4195C32.6126 11.7827 32.3898 11.0704 32.332 10.3357C32.2742 9.60089 32.3829 8.86253 32.65 8.1756C32.8198 7.7265 32.8449 7.23553 32.7216 6.7715C32.5983 6.30748 32.3329 5.89367 31.9625 5.5881C30.3276 4.21518 28.4666 3.13665 26.4625 2.4006C26.0062 2.23107 25.508 2.20989 25.0389 2.34007C24.5698 2.47025 24.1538 2.74515 23.85 3.1256C23.3929 3.71016 22.8086 4.18295 22.1415 4.50811C21.4745 4.83327 20.7421 5.00226 20 5.00226C19.2579 5.00226 18.5256 4.83327 17.8585 4.50811C17.1914 4.18295 16.6072 3.71016 16.15 3.1256C15.8463 2.74515 15.4303 2.47025 14.9612 2.34007C14.4921 2.20989 13.9939 2.23107 13.5375 2.4006C11.6871 3.08015 9.95702 4.05069 8.41253 5.2756C8.02321 5.5838 7.74279 6.00855 7.61233 6.48766C7.48186 6.96676 7.50822 7.47505 7.68753 7.9381C7.97597 8.64321 8.09515 9.40611 8.03549 10.1656C7.97584 10.9251 7.73902 11.66 7.34403 12.3115C6.94904 12.9629 6.40687 13.5127 5.76102 13.9167C5.11517 14.3208 4.38361 14.5678 3.62503 14.6381C3.13254 14.6908 2.66997 14.9001 2.30542 15.2354C1.94087 15.5707 1.6936 16.0142 1.60003 16.5006C1.36727 17.6527 1.25003 18.8252 1.25003 20.0006C1.24832 20.9846 1.32775 21.9671 1.48753 22.9381C1.56705 23.4401 1.80971 23.9018 2.178 24.2521C2.54629 24.6023 3.0197 24.8214 3.52503 24.8756C4.30027 24.9483 5.04681 25.2057 5.70216 25.6262C6.35751 26.0467 6.9026 26.6181 7.29182 27.2925C7.68103 27.9669 7.90304 28.7247 7.93927 29.5025C7.97549 30.2803 7.82488 31.0554 7.50003 31.7631C7.28744 32.2234 7.2347 32.7415 7.3502 33.2352C7.4657 33.7289 7.74281 34.1699 8.13753 34.4881C9.76267 35.8361 11.6057 36.8971 13.5875 37.6256C13.841 37.7134 14.1069 37.7598 14.375 37.7631C14.7427 37.7623 15.1049 37.6733 15.4311 37.5037C15.7574 37.3341 16.0382 37.0887 16.25 36.7881C16.6955 36.139 17.2928 35.6084 17.9898 35.2425C18.6869 34.8765 19.4627 34.6862 20.25 34.6881C21.0128 34.6891 21.7649 34.8681 22.4463 35.211C23.1277 35.5539 23.7197 36.0511 24.175 36.6631C24.4779 37.0702 24.9069 37.3658 25.3953 37.5037C25.8837 37.6416 26.4039 37.6142 26.875 37.4256C28.6871 36.6963 30.3742 35.6883 31.875 34.4381C32.2521 34.1264 32.5205 33.7031 32.6418 33.2292C32.7631 32.7553 32.731 32.2551 32.55 31.8006C32.256 31.1046 32.1278 30.3497 32.1756 29.5957C32.2233 28.8416 32.4457 28.109 32.8251 27.4556C33.2045 26.8022 33.7306 26.2459 34.3619 25.8307C34.9932 25.4155 35.7123 25.1527 36.4625 25.0631C36.949 24.9958 37.4014 24.7754 37.7543 24.4338C38.1071 24.0922 38.3421 23.6471 38.425 23.1631C38.6258 22.1205 38.7345 21.0622 38.75 20.0006C38.7503 18.8808 38.6456 17.7634 38.4375 16.6631C38.3531 16.1897 38.1217 15.755 37.7761 15.4206C37.4306 15.0863 36.9884 14.8693 36.5125 14.8006ZM26.25 20.0006C26.25 21.2367 25.8835 22.4451 25.1967 23.4729C24.51 24.5007 23.5338 25.3018 22.3918 25.7748C21.2498 26.2479 19.9931 26.3717 18.7807 26.1305C17.5683 25.8893 16.4547 25.2941 15.5806 24.42C14.7065 23.5459 14.1113 22.4323 13.8701 21.2199C13.629 20.0075 13.7527 18.7509 14.2258 17.6088C14.6988 16.4668 15.4999 15.4907 16.5277 14.8039C17.5555 14.1172 18.7639 13.7506 20 13.7506C21.6576 13.7506 23.2473 14.4091 24.4194 15.5812C25.5915 16.7533 26.25 18.343 26.25 20.0006Z" fill="#0B57CF"/>
</svg>
