<svg width="60" height="53" viewBox="0 0 60 53" fill="none" xmlns="http://www.w3.org/2000/svg">
<path d="M50.2105 35.4861C50.2105 36.4773 49.4037 37.2835 48.412 37.2835C47.4204 37.2835 46.6102 36.4773 46.6102 35.4861C46.6102 34.4949 47.4184 33.6922 48.412 33.6922C49.4057 33.6922 50.2105 34.4969 50.2105 35.4861ZM59.0627 35.9322C59.0627 42.3877 53.7275 47.6327 49.8319 51.4624C49.5408 51.7487 49.2591 52.0255 48.9904 52.2927C48.8304 52.4517 48.6212 52.5312 48.4119 52.5312C48.2026 52.5312 47.9939 52.4518 47.8338 52.293C47.5669 52.0279 47.2874 51.7532 46.9983 51.4694C43.0986 47.6384 37.7576 42.3917 37.7576 35.9323C37.7576 30.0664 42.5371 25.2941 48.4118 25.2941C54.2865 25.2941 59.0625 30.0664 59.0625 35.9323L59.0627 35.9322ZM53.7261 35.4861C53.7261 32.5584 51.3422 30.1766 48.412 30.1766C45.4819 30.1766 43.0945 32.5584 43.0945 35.4861C43.0945 38.4138 45.4799 40.7991 48.412 40.7991C51.3442 40.7991 53.7261 38.4158 53.7261 35.4861ZM39.3013 11.7235C39.1259 12.0247 39.0728 12.3095 39.1365 12.6413C39.4545 12.736 40.3785 12.8886 42.6475 12.572C45.0437 12.2371 46.2062 13.0982 46.7598 13.8798C47.6016 15.0683 47.5358 16.7462 46.5748 18.6044C46.2954 19.1445 44.7996 21.8393 42.7805 21.8393C40.745 21.8393 39.3079 21.3838 38.2586 21.0512C37.9825 20.9636 37.6266 20.8509 37.41 20.8059C37.3714 20.8602 37.3207 20.9388 37.2592 21.0502C37.2656 21.0642 37.2718 21.0778 37.2777 21.0905C37.7914 22.2034 38.1061 23.59 36.6429 25.4844C36.8634 25.7892 37.3141 26.2268 37.7464 26.6244C40.3458 23.6562 44.1633 21.7783 48.412 21.7783C50.0399 21.7783 51.6041 22.055 53.0612 22.5622C52.2952 17.2757 49.935 12.3778 46.2177 8.43687C42.6757 9.20223 40.0455 10.4462 39.3013 11.7234V11.7235ZM34.2422 35.9323C34.2422 33.6445 34.7891 31.4821 35.7581 29.5677C34.9665 28.8582 34.2308 28.1759 33.7193 27.4298C32.3824 25.4797 33.2877 24.0223 33.739 23.4862C34.068 23.0942 34.1638 22.8759 34.1896 22.8014C34.1678 22.7421 34.1215 22.6416 34.0857 22.5644C33.8505 22.055 33.3611 20.9948 34.0054 19.6884C35.5736 16.5124 37.8285 17.2269 39.3205 17.7C40.1782 17.9717 41.1425 18.2773 42.4725 18.3189C42.6823 18.1337 43.0419 17.7241 43.3596 17.1601C43.64 16.6623 43.7666 16.2621 43.8107 16.0153C43.6659 16.0063 43.4475 16.0099 43.1337 16.0537C41.5958 16.2684 40.3696 16.3289 39.3852 16.2388C37.0154 16.0221 36.1604 14.8913 35.8605 13.9809C35.4013 12.5868 35.5407 11.1941 36.2636 9.9534C37.517 7.80219 40.3114 6.45184 43.0957 5.61055C38.5397 2.10078 32.9845 0.198242 27.1362 0.198242C26.2093 0.198242 25.2901 0.247461 24.3806 0.341797C25.1633 1.85832 26.7103 3.08832 28.2158 4.28492C29.627 5.40652 30.9598 6.46602 31.7402 7.80828C32.4578 9.04238 32.9568 11.0109 31.2589 13.3805C29.6798 15.5837 26.4976 16.3147 23.4202 17.0214C20.8818 17.6045 18.0046 18.2653 17.8513 19.5133C17.676 20.937 17.9858 22.3525 18.6407 23.1196C19.013 23.5557 19.4784 23.7691 20.1061 23.7911L20.6961 23.8113C25.6583 23.9796 26.077 24.1411 29.6563 27.2675L29.739 27.3398C30.4875 27.9913 30.9178 29.0252 30.9812 30.3279C31.0473 31.6858 30.6864 33.5935 29.4752 34.8746C29.2527 35.1109 29.108 35.3846 28.9077 35.7635C28.557 36.4271 28.0766 37.3358 26.9728 38.2651C26.2205 38.8991 25.9148 40.5198 25.6452 41.9497C25.2977 43.7919 24.9386 45.6966 23.419 46.5942C22.7561 46.9859 22.1693 47.122 21.6739 47.1221C21.227 47.1221 20.8547 47.0112 20.5679 46.8774C18.9322 46.1136 18.6034 44.1194 18.1873 41.5947C17.6043 38.0587 16.9882 35.3157 14.8468 34.8369C13.7232 34.5853 12.9134 33.8552 12.5659 32.7809C12.3388 32.0782 12.3341 31.345 12.3293 30.5687C12.3231 29.5453 12.3166 28.4871 11.7948 27.5045C11.6032 27.1556 10.376 26.022 7.98199 24.935C6.41344 24.2227 4.0466 23.3969 1.13309 23.1421C1.00348 24.2032 0.9375 25.2788 0.9375 26.3646C0.9375 33.3538 3.66281 39.9248 8.61141 44.8672C13.5599 49.8092 20.1387 52.531 27.1361 52.531C31.6682 52.531 36.0768 51.362 39.9653 49.1784C36.9472 45.6105 34.242 41.1752 34.242 35.932L34.2422 35.9323ZM9.4677 21.7488C12.153 22.9732 14.1837 24.5083 14.8998 25.8554C15.827 27.6018 15.8374 29.3043 15.845 30.5475C15.8469 30.8434 15.8491 31.2173 15.8722 31.4695C20.2747 32.6429 21.1037 37.6727 21.656 41.0232C21.7321 41.4849 21.8262 42.0557 21.9299 42.5711C22.0321 42.1387 22.1222 41.6607 22.1905 41.2986C22.5502 39.3915 22.9978 37.018 24.7079 35.5766C25.2885 35.0879 25.5028 34.6823 25.7994 34.1211C26.0655 33.6178 26.3671 33.0472 26.9183 32.4621C27.4907 31.8567 27.583 30.3762 27.3696 29.9383L27.3434 29.9155C25.8601 28.6198 25.1155 27.9696 24.4235 27.7034C23.7165 27.4316 22.6673 27.3959 20.577 27.3252L19.983 27.3048C18.3693 27.248 16.9807 26.5902 15.9668 25.4023C14.6629 23.8748 14.063 21.5129 14.362 19.0843C14.8159 15.3908 18.969 14.4369 22.6332 13.5952C24.9599 13.0607 27.597 12.4551 28.4013 11.3329C29.3071 10.0689 29.2021 9.55988 26.0284 7.03719C24.1297 5.52805 21.8102 3.68422 20.8202 0.960547C16.2381 2.08836 12.0347 4.44371 8.61164 7.8623C5.28398 11.1857 2.96355 15.2463 1.79918 19.6746C5.05113 20.0081 7.695 20.9405 9.4677 21.7488Z" fill="#0B57CF"/>
</svg>
