<svg width="60" height="48" viewBox="0 0 60 48" fill="none" xmlns="http://www.w3.org/2000/svg">
<path d="M58.8984 20.5332C54.0352 15.7754 42.9258 6.51758 30 6.51758C26.9766 6.54102 23.9766 7.00977 21.0938 7.92383L25.3242 12.1543C31.4766 9.57617 38.5664 12.4707 41.1445 18.623C42.3984 21.6113 42.3984 24.9863 41.1445 27.9863L47.8125 34.6543C52.6523 31.7832 56.5195 28.3848 58.8984 26.0527C60.3633 24.5996 60.3633 21.9746 58.8984 20.5332Z" fill="#0B57CF"/>
<path d="M30 14.8379C29.3906 14.8379 28.793 14.9082 28.1953 15.0254L38.2617 25.0918C39.2578 20.5332 36.3633 16.0215 31.793 15.0254C31.207 14.8965 30.6094 14.8379 30 14.8379Z" fill="#0B57CF"/>
<path d="M8.61133 1.79492C7.48633 0.669922 5.66992 0.669922 4.54492 1.79492C3.41992 2.91992 3.41992 4.73633 4.54492 5.86133L11.2246 12.5293C6.83008 15.2715 3.31445 18.377 1.09961 20.5449C-0.376953 21.9863 -0.376953 24.6113 1.09961 26.0527C5.95117 30.7988 17.0723 40.0566 29.998 40.0566C32.5996 40.0449 35.1894 39.6934 37.709 39.0019L45.6426 46.9355C46.7676 48.0605 48.584 48.0605 49.709 46.9355C50.834 45.8105 50.834 43.9941 49.709 42.8691L8.61133 1.79492ZM29.998 35.3809C23.3184 35.3809 17.9043 29.9668 17.916 23.2871C17.916 22.0918 18.0918 20.8965 18.4434 19.748L21.5605 22.8652C21.5488 23.0059 21.5488 23.1582 21.5488 23.2988C21.5488 27.9629 25.334 31.748 29.998 31.748C30.1387 31.748 30.291 31.748 30.4316 31.7363L33.5488 34.8535C32.4004 35.1934 31.2051 35.3809 29.998 35.3809Z" fill="#0B57CF"/>
</svg>
