<svg width="46" height="47" viewBox="0 0 46 47" fill="none" xmlns="http://www.w3.org/2000/svg">
<g clip-path="url(#clip0_342_9702)">
<path d="M44.2631 19.1054L25.5001 19.1045C24.6716 19.1045 24 19.776 24 20.6045V26.5985C24 27.4268 24.6716 28.0985 25.5 28.0985H36.0662C34.9092 31.1011 32.7497 33.6158 29.9946 35.2136L34.4999 43.0128C41.7272 38.833 45.9999 31.4992 45.9999 23.2894C45.9999 22.1205 45.9138 21.2848 45.7415 20.3439C45.6105 19.629 44.9898 19.1054 44.2631 19.1054Z" fill="#167EE6"/>
<path d="M23.0021 37.1046C17.8313 37.1046 13.3172 34.2793 10.8927 30.0986L3.09375 34.5939C7.0626 41.4725 14.4975 46.1046 23.0021 46.1046C27.1742 46.1046 31.1109 44.9813 34.5021 43.0236V43.013L29.9967 35.2136C27.9359 36.4089 25.5511 37.1046 23.0021 37.1046Z" fill="#12B347"/>
<path d="M34.5 43.0239V43.0132L29.9946 35.2139C27.9338 36.4091 25.5491 37.1048 23 37.1048V46.1048C27.1721 46.1048 31.1089 44.9815 34.5 43.0239Z" fill="#0F993E"/>
<path d="M9.00001 23.1045C9.00001 20.5558 9.69558 18.1712 10.8906 16.1105L3.09161 11.6152C1.12323 14.9958 0 18.9218 0 23.1045C0 27.2873 1.12323 31.2133 3.09161 34.5939L10.8906 30.0986C9.69558 28.0379 9.00001 25.6533 9.00001 23.1045Z" fill="#FFD500"/>
<path d="M23.0021 9.1045C26.3741 9.1045 29.4713 10.3027 31.8906 12.2957C32.4874 12.7873 33.3548 12.7518 33.9015 12.2051L38.1484 7.95818C38.7687 7.3379 38.7245 6.32258 38.0619 5.74776C34.0086 2.23136 28.7348 0.104492 23.0021 0.104492C14.4975 0.104492 7.0626 4.73657 3.09375 11.6152L10.8927 16.1104C13.3172 11.9297 17.8313 9.1045 23.0021 9.1045Z" fill="#FF4B26"/>
<path d="M31.8884 12.2957C32.4853 12.7873 33.3528 12.7518 33.8994 12.2051L38.1463 7.95818C38.7665 7.3379 38.7223 6.32258 38.0598 5.74776C34.0065 2.23127 28.7327 0.104492 23 0.104492V9.1045C26.3718 9.1045 29.4692 10.3027 31.8884 12.2957Z" fill="#D93F21"/>
</g>
<defs>
<clipPath id="clip0_342_9702">
<rect width="46" height="46" fill="white" transform="translate(0 0.104492)"/>
</clipPath>
</defs>
</svg>
