<svg width="22" height="21" viewBox="0 0 22 21" fill="none" xmlns="http://www.w3.org/2000/svg">
<g clip-path="url(#clip0_342_9558)">
<path d="M1.24857 9.44354L5.79907 4.89305C6.04988 4.64224 6.37855 4.51685 6.70726 4.51685C7.03597 4.51685 7.36464 4.64224 7.61545 4.89305C8.11699 5.39462 8.11699 6.20781 7.61545 6.70938L5.25744 9.06735H20.1375C20.8469 9.06735 21.4219 9.64238 21.4219 10.3517C21.4219 11.061 20.8469 11.636 20.1375 11.636H5.25744L7.61545 13.994C8.11699 14.4956 8.11699 15.3088 7.61545 15.8103C7.11384 16.3119 6.30069 16.3119 5.79907 15.8103L1.24857 11.2598C0.747038 10.7583 0.747038 9.94508 1.24857 9.44354Z" fill="white"/>
</g>
<defs>
<clipPath id="clip0_342_9558">
<rect width="20.5495" height="20.5495" fill="white" transform="matrix(-1 0 0 -1 21.4219 20.626)"/>
</clipPath>
</defs>
</svg>
