<svg width="46" height="46" viewBox="0 0 46 46" fill="none" xmlns="http://www.w3.org/2000/svg">
<g clip-path="url(#clip0_342_9486)">
<path d="M43.1953 8.19375H12.2891V3.27031C12.2891 2.44375 12.9359 1.79688 13.7266 1.79688H41.7219C42.5484 1.79688 43.1953 2.44375 43.1953 3.27031V8.19375Z" fill="#0464B8"/>
<path d="M12.2891 8.19336H22.6031V17.7527H12.2891V8.19336Z" fill="#0377D4"/>
<path d="M22.6016 8.19336H32.9156V17.7527H22.6016V8.19336Z" fill="#29A7EB"/>
<path d="M32.9219 8.19336H43.2359V17.7527H32.9219V8.19336Z" fill="#4FD8FF"/>
<path d="M12.2891 17.7529H22.6031V27.3123H12.2891V17.7529Z" fill="#1681D7"/>
<path d="M22.6016 17.7529H32.9156V27.3123H22.6016V17.7529Z" fill="#0178D4"/>
<path d="M32.9219 17.7529H43.2359V27.3123H32.9219V17.7529Z" fill="#29A7EB"/>
<path d="M22.6016 27.2764H32.9156V36.8357H22.6016V27.2764Z" fill="#0464B8"/>
<path d="M32.9219 27.2764H43.2359V36.8357H32.9219V27.2764Z" fill="#1681D7"/>
<path d="M45.6062 24.8324L43.2344 26.234V22.209L45.5703 23.5027C46.1094 23.7543 46.1094 24.509 45.6062 24.8324Z" fill="#042071"/>
<path d="M45.6094 24.8324L45.3937 24.9762L45.1422 25.1199L43.2375 26.234V26.198L11.4688 44.3824H43.4891C44.8547 44.3824 45.9328 43.2684 45.9328 41.9387L45.9687 24.1855C46.0047 24.4012 45.8609 24.6887 45.6094 24.8324Z" fill="#168FDE"/>
<path d="M43.8438 44.3828H11.7875C10.4219 44.3828 9.34375 43.2687 9.34375 41.9391V24.6172L43.8438 44.3828Z" fill="#29A7EB"/>
<path d="M21.2063 34.6797H2.15937C0.901563 34.6797 -0.140625 33.6375 -0.140625 32.3797V13.6203C-0.140625 12.3625 0.901563 11.3203 2.15937 11.3203H21.2063C22.4641 11.3203 23.5063 12.3625 23.5063 13.6203V32.3797C23.5063 33.6375 22.5 34.6797 21.2063 34.6797Z" fill="#1681D7"/>
<path d="M11.6781 29.793C7.97656 29.793 5.64062 26.9898 5.64062 23.2523C5.64062 19.2992 8.19219 16.4961 11.8578 16.4961C15.6672 16.4961 17.8953 19.3352 17.8953 23.0008C17.9312 27.3492 15.2719 29.793 11.6781 29.793ZM11.8219 27.9242C14.1219 27.9242 15.4156 25.8039 15.4156 23.1086C15.4156 20.6648 14.1938 18.4008 11.8219 18.4008C9.45 18.4008 8.19219 20.6289 8.19219 23.2164C8.19219 25.8039 9.48594 27.9242 11.8219 27.9242Z" fill="#DBDCDC" fill-opacity="0.4"/>
<path opacity="0.2" d="M23.5391 13.4043V13.6199V32.3793C23.5391 33.6371 22.4969 34.6793 21.2391 34.6793H9.34375V36.7277H23.1437C24.4016 36.7277 25.4438 35.6855 25.4438 34.4277V15.6684C25.4438 14.5184 24.6172 13.548 23.5391 13.4043Z" fill="black"/>
</g>
<defs>
<clipPath id="clip0_342_9486">
<rect width="46" height="46" fill="white"/>
</clipPath>
</defs>
</svg>
