<svg width="46" height="47" viewBox="0 0 46 47" fill="none" xmlns="http://www.w3.org/2000/svg">
<g clip-path="url(#clip0_342_9720)">
<path d="M43.1953 8.29824H12.2891V3.3748C12.2891 2.54824 12.9359 1.90137 13.7266 1.90137H41.7219C42.5484 1.90137 43.1953 2.54824 43.1953 3.3748V8.29824Z" fill="#0464B8"/>
<path d="M12.2891 8.29785H22.6031V17.8572H12.2891V8.29785Z" fill="#0377D4"/>
<path d="M22.6016 8.29785H32.9156V17.8572H22.6016V8.29785Z" fill="#29A7EB"/>
<path d="M32.9219 8.29785H43.2359V17.8572H32.9219V8.29785Z" fill="#4FD8FF"/>
<path d="M12.2891 17.8574H22.6031V27.4168H12.2891V17.8574Z" fill="#1681D7"/>
<path d="M22.6016 17.8574H32.9156V27.4168H22.6016V17.8574Z" fill="#0178D4"/>
<path d="M32.9219 17.8574H43.2359V27.4168H32.9219V17.8574Z" fill="#29A7EB"/>
<path d="M22.6016 27.3809H32.9156V36.9402H22.6016V27.3809Z" fill="#0464B8"/>
<path d="M32.9219 27.3809H43.2359V36.9402H32.9219V27.3809Z" fill="#1681D7"/>
<path d="M45.6062 24.9369L43.2344 26.3385V22.3135L45.5703 23.6072C46.1094 23.8588 46.1094 24.6135 45.6062 24.9369Z" fill="#042071"/>
<path d="M45.6094 24.9369L45.3937 25.0807L45.1422 25.2244L43.2375 26.3385V26.3025L11.4688 44.4869H43.4891C44.8547 44.4869 45.9328 43.3728 45.9328 42.0432L45.9687 24.29C46.0047 24.5057 45.8609 24.7932 45.6094 24.9369Z" fill="#168FDE"/>
<path d="M43.8438 44.4873H11.7875C10.4219 44.4873 9.34375 43.3732 9.34375 42.0436V24.7217L43.8438 44.4873Z" fill="#29A7EB"/>
<path d="M21.2063 34.7842H2.15937C0.901563 34.7842 -0.140625 33.742 -0.140625 32.4842V13.7248C-0.140625 12.467 0.901563 11.4248 2.15937 11.4248H21.2063C22.4641 11.4248 23.5063 12.467 23.5063 13.7248V32.4842C23.5063 33.742 22.5 34.7842 21.2063 34.7842Z" fill="#1681D7"/>
<path d="M11.6781 29.8975C7.97656 29.8975 5.64062 27.0943 5.64062 23.3568C5.64062 19.4037 8.19219 16.6006 11.8578 16.6006C15.6672 16.6006 17.8953 19.4396 17.8953 23.1053C17.9312 27.4537 15.2719 29.8975 11.6781 29.8975ZM11.8219 28.0287C14.1219 28.0287 15.4156 25.9084 15.4156 23.2131C15.4156 20.7693 14.1938 18.5053 11.8219 18.5053C9.45 18.5053 8.19219 20.7334 8.19219 23.3209C8.19219 25.9084 9.48594 28.0287 11.8219 28.0287Z" fill="white"/>
<path opacity="0.2" d="M23.5391 13.5088V13.7244V32.4838C23.5391 33.7416 22.4969 34.7838 21.2391 34.7838H9.34375V36.8322H23.1437C24.4016 36.8322 25.4438 35.79 25.4438 34.5322V15.7729C25.4438 14.6229 24.6172 13.6525 23.5391 13.5088Z" fill="black"/>
</g>
<defs>
<clipPath id="clip0_342_9720">
<rect width="46" height="46" fill="white" transform="translate(0 0.104492)"/>
</clipPath>
</defs>
</svg>
