<svg width="37" height="42" viewBox="0 0 37 42" fill="none" xmlns="http://www.w3.org/2000/svg">
<g clip-path="url(#clip0_342_9711)">
<path d="M14.8771 1.55469L14.669 1.67956C14.3414 1.87632 14.0292 2.09579 13.7362 2.33418L14.3375 1.92173H19.425L20.35 8.79718L15.725 13.3379L11.1 16.4938V20.1339C11.1 22.6767 12.4528 25.0341 14.669 26.3472L19.5368 29.2419L9.25 35.1335H7.2651L3.56896 32.9351C1.35281 31.6182 0 29.2646 0 26.7218V14.4845C0 11.9417 1.35281 9.58046 3.56896 8.26743L14.669 1.67577C14.7383 1.63289 14.8077 1.59253 14.8771 1.55469Z" fill="url(#paint0_radial_342_9711)"/>
<path d="M14.8771 1.55469L14.669 1.67956C14.3414 1.87632 14.0292 2.09579 13.7362 2.33418L14.3375 1.92173H19.425L20.35 8.79718L15.725 13.3379L11.1 16.4938V20.1339C11.1 22.6767 12.4528 25.0341 14.669 26.3472L19.5368 29.2419L9.25 35.1335H7.2651L3.56896 32.9351C1.35281 31.6182 0 29.2646 0 26.7218V14.4845C0 11.9417 1.35281 9.58046 3.56896 8.26743L14.669 1.67577C14.7383 1.63289 14.8077 1.59253 14.8771 1.55469Z" fill="url(#paint1_linear_342_9711)"/>
<path d="M36.0759 22.4176L37.0009 23.7798V26.72C37.0009 29.259 35.6481 31.6164 33.432 32.9332L22.332 39.5324C19.9771 40.9325 17.0248 40.9325 14.6699 39.5324L3.82812 33.0884C6.13677 34.3408 8.96187 34.2917 11.232 32.9408L22.332 26.3453C24.5481 25.0285 25.9009 22.6711 25.9009 20.1283V16.0605L36.0759 22.4176Z" fill="url(#paint2_radial_342_9711)"/>
<path d="M36.0759 22.4176L37.0009 23.7798V26.72C37.0009 29.259 35.6481 31.6164 33.432 32.9332L22.332 39.5324C19.9771 40.9325 17.0248 40.9325 14.6699 39.5324L3.82812 33.0884C6.13677 34.3408 8.96187 34.2917 11.232 32.9408L22.332 26.3453C24.5481 25.0285 25.9009 22.6711 25.9009 20.1283V16.0605L36.0759 22.4176Z" fill="url(#paint3_linear_342_9711)"/>
<path d="M37.0016 14.4839V26.7212C37.0016 26.7994 37.0003 26.8789 36.9977 26.9596C36.9168 24.5076 35.5794 22.2561 33.4326 20.9809L22.3326 14.3893C19.9777 12.9892 17.0254 12.9892 14.6705 14.3893L11.1016 16.5083V7.89601C11.1016 5.35319 12.4544 2.99579 14.6705 1.67897L14.8902 1.54653C17.2104 0.275119 20.0509 0.320527 22.3326 1.67518L33.4326 8.26684C35.6488 9.57987 37.0016 11.9411 37.0016 14.4839Z" fill="url(#paint4_radial_342_9711)"/>
<path d="M37.0016 14.4839V26.7212C37.0016 26.7994 37.0003 26.8789 36.9977 26.9596C36.9168 24.5076 35.5794 22.2561 33.4326 20.9809L22.3326 14.3893C19.9777 12.9892 17.0254 12.9892 14.6705 14.3893L11.1016 16.5083V7.89601C11.1016 5.35319 12.4544 2.99579 14.6705 1.67897L14.8902 1.54653C17.2104 0.275119 20.0509 0.320527 22.3326 1.67518L33.4326 8.26684C35.6488 9.57987 37.0016 11.9411 37.0016 14.4839Z" fill="url(#paint5_linear_342_9711)"/>
</g>
<defs>
<radialGradient id="paint0_radial_342_9711" cx="0" cy="0" r="1" gradientUnits="userSpaceOnUse" gradientTransform="translate(12.4104 8.46798) scale(30.8642 30.3019)">
<stop offset="0.064" stop-color="#AE7FE2"/>
<stop offset="1" stop-color="#0078D4"/>
</radialGradient>
<linearGradient id="paint1_linear_342_9711" x1="12.4991" y1="33.1961" x2="8.214" y2="25.6508" gradientUnits="userSpaceOnUse">
<stop stop-color="#114A8B"/>
<stop offset="1" stop-color="#0078D4" stop-opacity="0"/>
</linearGradient>
<radialGradient id="paint2_radial_342_9711" cx="0" cy="0" r="1" gradientUnits="userSpaceOnUse" gradientTransform="translate(5.94792 31.8169) scale(28.7212 28.1981)">
<stop offset="0.134" stop-color="#D59DFF"/>
<stop offset="1" stop-color="#5E438F"/>
</radialGradient>
<linearGradient id="paint3_linear_342_9711" x1="33.6324" y1="21.85" x2="29.0271" y2="28.5741" gradientUnits="userSpaceOnUse">
<stop stop-color="#493474"/>
<stop offset="1" stop-color="#8C66BA" stop-opacity="0"/>
</linearGradient>
<radialGradient id="paint4_radial_342_9711" cx="0" cy="0" r="1" gradientUnits="userSpaceOnUse" gradientTransform="translate(34.2767 22.8767) scale(23.0518 22.6319)">
<stop offset="0.058" stop-color="#50E6FF"/>
<stop offset="1" stop-color="#436DCD"/>
</radialGradient>
<linearGradient id="paint5_linear_342_9711" x1="12.0034" y1="1.58437" x2="18.9525" y2="1.58437" gradientUnits="userSpaceOnUse">
<stop stop-color="#2D3F80"/>
<stop offset="1" stop-color="#436DCD" stop-opacity="0"/>
</linearGradient>
<clipPath id="clip0_342_9711">
<rect width="37" height="41" fill="white" transform="translate(0 0.104492)"/>
</clipPath>
</defs>
</svg>
