<svg width="18" height="17" viewBox="0 0 18 17" fill="none" xmlns="http://www.w3.org/2000/svg">
<path d="M8.52447 1.12563C8.67415 0.664979 9.32585 0.664979 9.47553 1.12563L11.1329 6.22645C11.1998 6.43246 11.3918 6.57194 11.6084 6.57194H16.9717C17.4561 6.57194 17.6575 7.19175 17.2656 7.47645L12.9266 10.6289C12.7514 10.7562 12.678 10.9819 12.745 11.1879L14.4023 16.2888C14.552 16.7494 14.0248 17.1325 13.6329 16.8478L9.29389 13.6953C9.11865 13.568 8.88135 13.568 8.70611 13.6953L4.3671 16.8478C3.97524 17.1325 3.448 16.7494 3.59768 16.2888L5.25503 11.1879C5.32197 10.9819 5.24864 10.7562 5.07339 10.6289L0.734384 7.47645C0.342527 7.19175 0.543915 6.57194 1.02828 6.57194H6.39159C6.6082 6.57194 6.80018 6.43246 6.86712 6.22645L8.52447 1.12563Z" fill="#FF7E00"/>
</svg>
