<svg width="20" height="21" viewBox="0 0 20 21" fill="none" xmlns="http://www.w3.org/2000/svg">
<path d="M9.52447 2.12563C9.67415 1.66498 10.3259 1.66498 10.4755 2.12563L12.1329 7.22645C12.1998 7.43246 12.3918 7.57194 12.6084 7.57194H17.9717C18.4561 7.57194 18.6575 8.19175 18.2656 8.47645L13.9266 11.6289C13.7514 11.7562 13.678 11.9819 13.745 12.1879L15.4023 17.2888C15.552 17.7494 15.0248 18.1325 14.6329 17.8478L10.2939 14.6953C10.1186 14.568 9.88135 14.568 9.70611 14.6953L5.3671 17.8478C4.97524 18.1325 4.448 17.7494 4.59768 17.2888L6.25503 12.1879C6.32197 11.9819 6.24864 11.7562 6.07339 11.6289L1.73438 8.47645C1.34253 8.19175 1.54392 7.57194 2.02828 7.57194H7.39159C7.6082 7.57194 7.80018 7.43246 7.86712 7.22645L9.52447 2.12563Z" fill="#FF7E00"/>
<mask id="mask0_342_9760" style="mask-type:alpha" maskUnits="userSpaceOnUse" x="1" y="1" width="18" height="17">
<path d="M9.52447 2.12563C9.67415 1.66498 10.3259 1.66498 10.4755 2.12563L12.1329 7.22645C12.1998 7.43246 12.3918 7.57194 12.6084 7.57194H17.9717C18.4561 7.57194 18.6575 8.19175 18.2656 8.47645L13.9266 11.6289C13.7514 11.7562 13.678 11.9819 13.745 12.1879L15.4023 17.2888C15.552 17.7494 15.0248 18.1325 14.6329 17.8478L10.2939 14.6953C10.1186 14.568 9.88135 14.568 9.70611 14.6953L5.3671 17.8478C4.97524 18.1325 4.448 17.7494 4.59768 17.2888L6.25503 12.1879C6.32197 11.9819 6.24864 11.7562 6.07339 11.6289L1.73438 8.47645C1.34253 8.19175 1.54392 7.57194 2.02828 7.57194H7.39159C7.6082 7.57194 7.80018 7.43246 7.86712 7.22645L9.52447 2.12563Z" fill="#E9923D"/>
</mask>
<g mask="url(#mask0_342_9760)">
<rect x="10" y="-1.56055" width="10.5556" height="22.7778" rx="0.5" fill="#D9D9D9"/>
</g>
</svg>
