<svg width="21" height="22" viewBox="0 0 21 22" fill="none" xmlns="http://www.w3.org/2000/svg">
<g clip-path="url(#clip0_342_9479)">
<path d="M20.1889 12.116L15.6384 16.6665C15.3876 16.9173 15.0589 17.0427 14.7302 17.0427C14.4015 17.0427 14.0729 16.9173 13.822 16.6665C13.3205 16.1649 13.3205 15.3518 13.822 14.8502L16.1801 12.4922H1.29997C0.590648 12.4922 0.015625 11.9172 0.015625 11.2079C0.015625 10.4986 0.590648 9.92354 1.29997 9.92354H16.1801L13.822 7.56557C13.3205 7.06399 13.3205 6.2508 13.822 5.74923C14.3237 5.24765 15.1368 5.24765 15.6384 5.74923L20.1889 10.2997C20.6905 10.8013 20.6905 11.6145 20.1889 12.116Z" fill="white"/>
</g>
<defs>
<clipPath id="clip0_342_9479">
<rect width="20.5495" height="20.5495" fill="white" transform="translate(0.015625 0.932617)"/>
</clipPath>
</defs>
</svg>
