<svg width="15" height="16" viewBox="0 0 15 16" fill="none" xmlns="http://www.w3.org/2000/svg">
<path d="M11.6738 8.29102H2.94336C2.53877 8.29102 2.21094 7.96318 2.21094 7.55859C2.21094 7.154 2.53877 6.82617 2.94336 6.82617H11.6738C12.0784 6.82617 12.4062 7.154 12.4062 7.55859C12.4062 7.96318 12.0784 8.29102 11.6738 8.29102Z" fill="white"/>
<path d="M8.31964 11.7549C8.12306 11.7549 7.92677 11.6761 7.78234 11.5205C7.50724 11.224 7.52482 10.7606 7.8213 10.4855L10.9698 7.56544L7.72609 4.63751C7.4258 4.36652 7.40206 3.90333 7.67306 3.60304C7.94406 3.30275 8.40724 3.27902 8.70753 3.55001L12.5454 7.01437C12.6981 7.15207 12.7857 7.34747 12.7871 7.55314C12.7886 7.7588 12.7036 7.95538 12.5527 8.09513L8.8174 11.5595C8.67648 11.6902 8.49777 11.7549 8.31964 11.7549Z" fill="white"/>
</svg>
