<svg width="150" height="151" viewBox="0 0 150 151" fill="none" xmlns="http://www.w3.org/2000/svg">
<path d="M118.941 136.837H104.529L101.599 128.048H48.3932L45.4635 136.837H31.0508C28.6223 136.837 26.6562 138.803 26.6562 141.231C26.6562 143.66 28.6223 145.626 31.0508 145.626H118.941C121.37 145.626 123.336 143.66 123.336 141.231C123.336 138.803 121.37 136.837 118.941 136.837Z" fill="#0B57CF"/>
<path d="M118.941 31.3682C116.516 31.3682 114.547 33.3377 114.547 35.7627C114.547 38.1877 116.516 40.1572 118.941 40.1572C121.366 40.1572 123.336 38.1877 123.336 35.7627C123.336 33.3377 121.366 31.3682 118.941 31.3682Z" fill="#0B57CF"/>
<path d="M136.523 5.00098H13.1836C5.91431 5.00098 0 10.9153 0 18.1846V92.8916H26.6602V79.708C26.6602 77.2796 28.6263 75.3135 31.0547 75.3135H37.8445C38.2988 74.0352 38.8184 72.7809 39.4066 71.5495L34.6035 66.743C32.8869 65.0264 32.8869 62.2455 34.6035 60.5289L47.0318 48.1006C48.7484 46.384 51.5293 46.384 53.2459 48.1006L58.0524 52.9071C59.2838 52.3189 60.537 51.7959 61.8164 51.3404V44.5518C61.8164 42.1233 63.7825 40.1572 66.2109 40.1572H83.7891C86.2175 40.1572 88.1836 42.1233 88.1836 44.5518V51.3415C89.4619 51.7959 90.7162 52.32 91.9476 52.9071L96.7541 48.1006C98.4707 46.3851 101.252 46.3851 102.968 48.1006L115.396 60.5289C117.113 62.2455 117.113 65.0275 115.396 66.743L110.593 71.5495C111.182 72.782 111.701 74.0352 112.156 75.3135H118.945C121.374 75.3135 123.34 77.2796 123.34 79.708V92.8916H150V18.1846C150 10.9153 143.793 5.00098 136.523 5.00098ZM118.945 48.9463C111.676 48.9463 105.762 43.032 105.762 35.7627C105.762 28.4934 111.676 22.5791 118.945 22.5791C126.215 22.5791 132.129 28.4934 132.129 35.7627C132.129 43.032 126.215 48.9463 118.945 48.9463Z" fill="#0B57CF"/>
<path d="M61.8125 88.4971C61.8125 90.0157 62.1627 91.4805 62.6651 92.8916H87.3271C87.8295 91.4805 88.1797 90.0157 88.1797 88.4971C88.1797 81.2278 82.2654 75.3135 74.9961 75.3135C67.7257 75.3135 61.8125 81.2278 61.8125 88.4971Z" fill="#0B57CF"/>
<path d="M45.3488 80.8066C44.8476 82.7464 43.0966 84.1025 41.0916 84.1025H35.4531V92.8916H53.6092C53.3139 91.4439 53.0312 89.9894 53.0312 88.4971C53.0312 76.3824 62.8892 66.5244 75.0039 66.5244C87.1186 66.5244 96.9766 76.3824 96.9766 88.4971C96.9766 89.9894 96.6939 91.4439 96.3986 92.8916H114.555V84.1025H108.916C106.911 84.1025 105.16 82.7464 104.659 80.8066C103.959 78.0818 102.865 75.4462 101.405 72.9743C100.388 71.2497 100.667 69.0524 102.083 67.6356L106.079 63.6359L99.8651 57.4218L95.8653 61.4215C94.4486 62.8428 92.2467 63.1255 90.5221 62.0956C88.0547 60.641 85.4238 59.5424 82.6943 58.842C80.7546 58.3407 79.3984 56.5898 79.3984 54.5848V48.9463H70.6094V54.5848C70.6094 56.5898 69.2533 58.3407 67.3135 58.842C64.5841 59.5424 61.9531 60.641 59.4857 62.0956C57.7691 63.1255 55.5627 62.8428 54.1425 61.4215L50.1428 57.4218L43.9286 63.6359L47.9249 67.6356C49.3405 69.0524 49.6198 71.2497 48.6024 72.9743C47.1433 75.4462 46.0492 78.0818 45.3488 80.8066Z" fill="#0B57CF"/>
<path d="M0 106.075C0 113.344 5.91431 119.259 13.1836 119.259H136.523C143.793 119.259 150 113.344 150 106.075V101.681H0V106.075Z" fill="#0B57CF"/>
</svg>
