<svg width="150" height="151" viewBox="0 0 150 151" fill="none" xmlns="http://www.w3.org/2000/svg">
<path d="M118.75 6.56152H31.25C29.7524 6.57877 28.3107 7.13325 27.1875 8.12402C31.6446 9.69216 35.5661 12.4913 38.4974 16.1969C41.4288 19.9026 43.25 24.3631 43.75 29.0615C43.8456 29.8921 43.8456 30.7309 43.75 31.5615V137.812C43.747 139.007 44.087 140.178 44.7295 141.186C45.372 142.194 46.2901 142.997 47.375 143.499C48.4624 144 49.6707 144.177 50.8563 144.011C52.0418 143.845 53.1546 143.342 54.0625 142.562L71.875 127.312L89.6875 142.562C90.8196 143.53 92.2603 144.062 93.75 144.062C95.2397 144.062 96.6804 143.53 97.8125 142.562L115.625 127.312L133.438 142.562C134.57 143.53 136.01 144.062 137.5 144.062C138.404 144.055 139.298 143.864 140.125 143.499C141.21 142.997 142.128 142.194 142.771 141.186C143.413 140.178 143.753 139.007 143.75 137.812V31.5615C143.75 24.9311 141.116 18.5723 136.428 13.8839C131.739 9.19544 125.38 6.56152 118.75 6.56152ZM112.5 94.0615H75C73.3424 94.0615 71.7527 93.403 70.5806 92.2309C69.4085 91.0588 68.75 89.4691 68.75 87.8115C68.75 86.1539 69.4085 84.5642 70.5806 83.3921C71.7527 82.22 73.3424 81.5615 75 81.5615H112.5C114.158 81.5615 115.747 82.22 116.919 83.3921C118.092 84.5642 118.75 86.1539 118.75 87.8115C118.75 89.4691 118.092 91.0588 116.919 92.2309C115.747 93.403 114.158 94.0615 112.5 94.0615ZM112.5 69.0615H75C73.3424 69.0615 71.7527 68.403 70.5806 67.2309C69.4085 66.0588 68.75 64.4691 68.75 62.8115C68.75 61.1539 69.4085 59.5642 70.5806 58.3921C71.7527 57.22 73.3424 56.5615 75 56.5615H112.5C114.158 56.5615 115.747 57.22 116.919 58.3921C118.092 59.5642 118.75 61.1539 118.75 62.8115C118.75 64.4691 118.092 66.0588 116.919 67.2309C115.747 68.403 114.158 69.0615 112.5 69.0615ZM112.5 44.0615H75C73.3424 44.0615 71.7527 43.403 70.5806 42.2309C69.4085 41.0588 68.75 39.4691 68.75 37.8115C68.75 36.1539 69.4085 34.5642 70.5806 33.3921C71.7527 32.22 73.3424 31.5615 75 31.5615H112.5C114.158 31.5615 115.747 32.22 116.919 33.3921C118.092 34.5642 118.75 36.1539 118.75 37.8115C118.75 39.4691 118.092 41.0588 116.919 42.2309C115.747 43.403 114.158 44.0615 112.5 44.0615ZM31.25 31.5615V81.5615H12.5C10.8424 81.5615 9.25268 80.903 8.08058 79.7309C6.90848 78.5588 6.25 76.9691 6.25 75.3115V31.5615C6.25 30.6865 6.25 29.874 6.25 29.0615C6.58152 25.7463 8.21642 22.6986 10.795 20.5888C13.3737 18.479 16.6848 17.48 20 17.8115C23.3152 18.143 26.3629 19.7779 28.4727 22.3566C30.5825 24.9352 31.5815 28.2463 31.25 31.5615Z" fill="#0B57CF"/>
</svg>
