<svg width="150" height="151" viewBox="0 0 150 151" fill="none" xmlns="http://www.w3.org/2000/svg">
<g clip-path="url(#clip0_342_9652)">
<g clip-path="url(#clip1_342_9652)">
<path d="M98.6348 100.746C98.9826 97.0899 98.8775 93.4473 98.349 89.8911L106.57 86.2269C105.793 82.2447 104.572 78.3163 102.879 74.5147C101.185 70.7157 99.0824 67.181 96.645 63.9375L88.4189 67.5989C86.1299 64.83 83.493 62.3171 80.5434 60.1278L83.768 51.7265C80.4005 49.4617 76.7606 47.5474 72.8754 46.0564C69.0064 44.5708 65.0322 43.5435 60.9906 42.9746L57.7632 51.384C54.1072 51.0362 50.4646 51.1414 46.9084 51.6698L43.2658 43.4896C35.1287 45.0884 27.5254 48.5396 20.998 53.4709L24.6162 61.5972C21.8419 63.8863 19.329 66.5259 17.1397 69.4728L8.75993 66.2589C6.47356 69.6184 4.55657 73.2609 3.06288 77.1435C1.58267 81.026 0.568897 85.011 0 89.0256L8.40134 92.2502C8.05353 95.9063 8.15868 99.5488 8.68713 103.105L0.466441 106.767C1.24294 110.752 2.46432 114.677 4.15753 118.479C5.85344 122.28 7.95377 125.812 10.3938 129.056L18.6145 125.395C20.9036 128.166 23.5405 130.679 26.4928 132.868L23.2681 141.275C26.6357 143.543 30.2756 145.454 34.1608 146.945C38.0298 148.431 42.004 149.458 46.0456 150.027L49.2729 141.618C52.929 141.963 56.5715 141.857 60.1278 141.329L63.7704 149.507C71.9075 147.908 79.5161 144.457 86.0409 139.525L82.4199 131.399C85.1916 129.11 87.7072 126.473 89.8965 123.523L98.2708 126.737C100.557 123.378 102.474 119.735 103.968 115.855C105.459 111.973 106.47 107.985 107.039 103.968L98.6348 100.746ZM76.3023 105.24C71.4734 117.826 57.3588 124.108 44.7703 119.28C32.1979 114.453 25.9077 100.342 30.7339 87.7584C35.5628 75.1752 49.6774 68.8931 62.2578 73.7166C74.8409 78.5428 81.1284 92.6601 76.3023 105.24Z" fill="#0B57CF"/>
<path d="M144.151 33.7487C144.151 32.1202 143.984 30.5267 143.698 28.9791L149.999 25.3392C148.473 19.537 145.442 14.3415 141.298 10.2379L134.981 13.8858C132.571 11.8205 129.778 10.2028 126.723 9.12433V1.83652C123.94 1.0735 121.026 0.636719 118.009 0.636719C114.992 0.636719 112.08 1.07889 109.295 1.83652V9.12703C106.24 10.2055 103.449 11.8259 101.036 13.8885L94.7162 10.2406C90.5776 14.3442 87.5444 19.5397 86.0156 25.3419L92.3193 28.9818C92.0335 30.5321 91.8637 32.1202 91.8637 33.7514C91.8637 35.3825 92.0335 36.9733 92.3193 38.5209L86.0156 42.1608C87.5444 47.963 90.5776 53.1612 94.7162 57.2621L101.033 53.6142C103.447 55.6795 106.237 57.2972 109.292 58.3757V65.6662C112.077 66.4265 114.989 66.866 118.006 66.866C121.023 66.866 123.94 66.4238 126.72 65.6662V58.3757C129.775 57.2972 132.568 55.6768 134.978 53.6142L141.296 57.2621C145.44 53.1585 148.47 47.963 149.996 42.1608L143.695 38.5209C143.984 36.9679 144.151 35.3799 144.151 33.7487ZM118.011 45.9516C111.271 45.9516 105.806 40.4891 105.806 33.7514C105.806 27.0136 111.271 21.5484 118.011 21.5484C124.744 21.5484 130.209 27.0109 130.209 33.7487C130.209 40.4864 124.744 45.9516 118.011 45.9516Z" fill="#0B57CF"/>
</g>
</g>
<defs>
<clipPath id="clip0_342_9652">
<rect width="150" height="150" fill="white" transform="translate(0 0.313477)"/>
</clipPath>
<clipPath id="clip1_342_9652">
<rect width="150" height="150" fill="white" transform="translate(0 0.313477)"/>
</clipPath>
</defs>
</svg>
