<svg width="150" height="151" viewBox="0 0 150 151" fill="none" xmlns="http://www.w3.org/2000/svg">
<path d="M40.6536 75.3037C34.4705 75.2981 28.4247 77.1267 23.2813 80.5583C18.1379 83.9899 14.1281 88.8702 11.7593 94.5816C9.3905 100.293 8.76921 106.579 9.97405 112.643C11.1789 118.708 14.1557 124.279 18.5278 128.651C22.8999 133.023 28.4707 136 34.5352 137.205C40.5998 138.41 46.8855 137.788 52.5968 135.42C58.3082 133.051 63.1885 129.041 66.6202 123.898C70.0518 118.754 71.8806 112.709 71.875 106.525C71.8668 98.2475 68.5748 90.311 62.7215 84.4575C56.8681 78.6041 48.9316 75.312 40.6536 75.3037ZM27.8526 93.7813H40.625C41.1855 93.7792 41.7408 93.8877 42.2593 94.1007C42.7777 94.3137 43.2489 94.627 43.646 95.0225C44.0431 95.4181 44.3581 95.8881 44.5731 96.4057C44.7881 96.9233 44.8988 97.4783 44.8988 98.0387C44.8988 98.5992 44.7881 99.1542 44.5731 99.6718C44.3581 100.189 44.0431 100.659 43.646 101.055C43.2489 101.451 42.7777 101.764 42.2593 101.977C41.7408 102.19 41.1855 102.298 40.625 102.296H27.8526C27.2922 102.298 26.7368 102.19 26.2184 101.977C25.7 101.764 25.2287 101.451 24.8316 101.055C24.4346 100.659 24.1195 100.189 23.9045 99.6718C23.6895 99.1542 23.5789 98.5992 23.5789 98.0387C23.5789 97.4783 23.6895 96.9233 23.9045 96.4057C24.1195 95.8881 24.4346 95.4181 24.8316 95.0225C25.2287 94.627 25.7 94.3137 26.2184 94.1007C26.7368 93.8877 27.2922 93.7792 27.8526 93.7813ZM53.3978 119.326H27.8526C27.2922 119.328 26.7368 119.22 26.2184 119.007C25.7 118.794 25.2287 118.48 24.8316 118.085C24.4346 117.689 24.1195 117.219 23.9045 116.702C23.6895 116.184 23.5789 115.629 23.5789 115.069C23.5789 114.508 23.6895 113.953 23.9045 113.436C24.1195 112.918 24.4346 112.448 24.8316 112.052C25.2287 111.657 25.7 111.344 26.2184 111.131C26.7368 110.918 27.2922 110.809 27.8526 110.811H53.3978C54.5241 110.816 55.6028 111.266 56.3977 112.064C57.1926 112.862 57.6389 113.942 57.6389 115.069C57.6389 116.195 57.1926 117.275 56.3977 118.073C55.6028 118.871 54.5241 119.322 53.3978 119.326ZM109.375 12.8037H46.875C28.125 12.8037 15.625 22.1787 15.625 44.0537V63.6575C15.6317 64.7045 15.9012 65.7331 16.4086 66.6489C16.9161 67.5647 17.6454 68.3385 18.5296 68.8993C19.4137 69.4601 20.4246 69.79 21.4693 69.8587C22.5141 69.9274 23.5594 69.7327 24.5094 69.2925C31.122 66.4191 38.3809 65.3597 45.5389 66.2235C52.6969 67.0872 59.4954 69.8428 65.2347 74.2067C70.974 78.5706 75.4467 84.3851 78.1925 91.0517C80.9383 97.7183 81.8579 104.996 80.8567 112.136C80.7512 113.009 80.8333 113.895 81.0975 114.733C81.3618 115.572 81.802 116.345 82.3888 116.999C82.9757 117.654 83.6956 118.176 84.5004 118.531C85.3051 118.885 86.1763 119.063 87.0556 119.054H109.375C128.125 119.054 140.625 109.679 140.625 87.8037V44.0537C140.625 22.1787 128.125 12.8037 109.375 12.8037ZM112.302 47.7128L92.7641 63.3408C88.553 66.5384 83.4108 68.2694 78.1233 68.2694C72.8358 68.2694 67.6936 66.5384 63.4825 63.3408L43.9484 47.7128C43.467 47.3288 43.066 46.8536 42.7683 46.3145C42.4707 45.7754 42.2822 45.1828 42.2137 44.5708C42.1453 43.9588 42.1981 43.3393 42.3693 42.7478C42.5404 42.1562 42.8265 41.6042 43.2111 41.1232C43.5958 40.6423 44.0715 40.2419 44.611 39.945C45.1505 39.6481 45.7432 39.4604 46.3553 39.3927C46.9674 39.3251 47.5869 39.3787 48.1782 39.5506C48.7696 39.7226 49.3212 40.0094 49.8016 40.3947L69.3391 56.0227C71.8919 57.8791 74.9671 58.8791 78.1235 58.8791C81.2799 58.8791 84.3551 57.8791 86.9079 56.0227L106.448 40.3947C107.419 39.6204 108.657 39.2631 109.891 39.4011C111.125 39.5392 112.254 40.1613 113.029 41.1309C113.805 42.1005 114.164 43.3383 114.027 44.5724C113.891 45.8065 113.27 46.936 112.302 47.7128Z" fill="#0B57CF"/>
</svg>
