<svg width="39" height="38" viewBox="0 0 39 38" fill="none" xmlns="http://www.w3.org/2000/svg">
<path d="M38.3321 19C38.3321 29.2151 30.0122 37.5 19.7442 37.5C9.47616 37.5 1.15625 29.2151 1.15625 19C1.15625 8.78491 9.47616 0.5 19.7442 0.5C30.0122 0.5 38.3321 8.78491 38.3321 19Z" stroke="white"/>
<path d="M24.7722 8.9082H14.7261C11.9637 8.9082 9.70312 11.1644 9.70312 13.9215V23.9486C9.70312 26.7049 11.9637 28.9619 14.7261 28.9619H24.7722C27.5346 28.9619 29.7952 26.7049 29.7952 23.9486V13.9215C29.7952 11.1644 27.5346 8.9082 24.7722 8.9082ZM28.1207 23.9486C28.1207 25.791 26.6191 27.2907 24.7722 27.2907H14.7261C12.8799 27.2907 11.3775 25.791 11.3775 23.9486V13.9215C11.3775 12.0786 12.8799 10.5794 14.7261 10.5794H24.7722C26.6191 10.5794 28.1207 12.0786 28.1207 13.9215V23.9486Z" fill="white"/>
<path d="M25.1854 14.7566C25.879 14.7566 26.4412 14.1955 26.4412 13.5033C26.4412 12.8111 25.879 12.25 25.1854 12.25C24.4919 12.25 23.9297 12.8111 23.9297 13.5033C23.9297 14.1955 24.4919 14.7566 25.1854 14.7566Z" fill="white"/>
<path d="M19.7418 13.9219C16.967 13.9219 14.7188 16.1661 14.7188 18.9352C14.7188 21.7033 16.967 23.949 19.7418 23.949C22.5157 23.949 24.7648 21.7033 24.7648 18.9352C24.7648 16.1661 22.5157 13.9219 19.7418 13.9219ZM19.7418 22.2778C17.8925 22.2778 16.3932 20.7813 16.3932 18.9352C16.3932 17.089 17.8925 15.5931 19.7418 15.5931C21.591 15.5931 23.0904 17.089 23.0904 18.9352C23.0904 20.7813 21.591 22.2778 19.7418 22.2778Z" fill="white"/>
</svg>
