<svg width="39" height="38" viewBox="0 0 39 38" fill="none" xmlns="http://www.w3.org/2000/svg">
<path d="M38.5039 19C38.5039 29.2151 30.184 37.5 19.916 37.5C9.64804 37.5 1.32812 29.2151 1.32812 19C1.32812 8.78491 9.64804 0.5 19.916 0.5C30.184 0.5 38.5039 8.78491 38.5039 19Z" stroke="white"/>
<g clip-path="url(#clip0_342_12608)">
<path fill-rule="evenodd" clip-rule="evenodd" d="M19.8807 9.30273C21.6919 9.32331 23.3282 9.7664 24.7894 10.632C26.2333 11.4803 27.4344 12.6832 28.2778 14.1255C29.1421 15.5889 29.5846 17.2274 29.6052 19.0413C29.5539 21.523 28.7675 23.6427 27.246 25.4003C25.7246 27.1579 23.7759 28.2452 21.7587 28.6621V21.7039H23.6658L24.0971 18.9696H21.2093V17.1786C21.1933 16.8074 21.3113 16.4426 21.5419 16.1504C21.7728 15.8573 22.1795 15.7033 22.7619 15.6883H24.5058V13.2931C24.4807 13.2851 24.2433 13.2534 23.7935 13.198C23.2834 13.1386 22.7703 13.1069 22.2567 13.1029C21.0943 13.1083 20.1749 13.4347 19.4987 14.0821C18.8224 14.7294 18.477 15.6659 18.4623 16.8916V18.9696H16.2647V21.7039H18.4623V28.6621C15.9855 28.2452 14.0369 27.1579 12.5154 25.4003C10.9939 23.6427 10.2076 21.523 10.1562 19.0413C10.1768 17.2274 10.6192 15.5888 11.4836 14.1255C12.327 12.6832 13.5281 11.4803 14.972 10.632C16.4332 9.76656 18.0695 9.32347 19.8807 9.30273Z" fill="white"/>
</g>
<defs>
<clipPath id="clip0_342_12608">
<rect width="20.0925" height="20" fill="white" transform="translate(9.86719 9)"/>
</clipPath>
</defs>
</svg>
