<svg width="35" height="35" viewBox="0 0 35 35" fill="none" xmlns="http://www.w3.org/2000/svg">
<g clip-path="url(#clip0_342_9536)">
<path d="M17.5 35C27.165 35 35 27.165 35 17.5C35 7.83502 27.165 0 17.5 0C7.83502 0 0 7.83502 0 17.5C0 27.165 7.83502 35 17.5 35Z" fill="#6001D1"/>
<path d="M16.1353 12.8086L13.8166 18.5629L11.5715 12.8063C11.5392 12.7238 11.4829 12.6529 11.4098 12.6028C11.3367 12.5527 11.2502 12.5258 11.1616 12.5254H8.04157C7.96946 12.5254 7.89844 12.5431 7.83478 12.5769C7.77112 12.6108 7.71676 12.6598 7.6765 12.7196C7.63623 12.7795 7.6113 12.8483 7.60389 12.92C7.59648 12.9917 7.60682 13.0642 7.63401 13.131L11.834 23.4399L10.761 26.0971C10.7323 26.1642 10.7208 26.2374 10.7275 26.3101C10.7342 26.3828 10.7589 26.4527 10.7993 26.5135C10.8397 26.5742 10.8947 26.624 10.9591 26.6582C11.0236 26.6925 11.0956 26.7101 11.1685 26.7096H14.1827C14.2702 26.71 14.3559 26.684 14.4286 26.6352C14.5012 26.5863 14.5575 26.5168 14.5903 26.4356L19.9669 13.1402C19.9937 13.0745 20.0042 13.0032 19.9975 12.9326C19.9907 12.8619 19.967 12.794 19.9283 12.7345C19.8897 12.675 19.8372 12.6257 19.7753 12.5909C19.7134 12.5561 19.6441 12.5368 19.5732 12.5346H16.5406C16.4534 12.5347 16.3683 12.5608 16.2961 12.6097C16.2239 12.6585 16.1679 12.7278 16.1353 12.8086Z" fill="white"/>
<path d="M23.5295 8.56216C23.5629 8.48003 23.6204 8.40991 23.6943 8.36101C23.7683 8.31211 23.8553 8.28671 23.944 8.28814H26.9627C27.0347 8.2877 27.1058 8.30504 27.1695 8.33864C27.2332 8.37223 27.2876 8.42104 27.3279 8.48072C27.3683 8.54041 27.3932 8.60912 27.4006 8.68077C27.408 8.75242 27.3976 8.82478 27.3703 8.89143L24.1742 16.748C24.1416 16.8295 24.0854 16.8993 24.0127 16.9486C23.9401 16.9978 23.8544 17.0242 23.7667 17.0243H20.7525C20.6804 17.0244 20.6094 17.0067 20.5457 16.9728C20.4821 16.9389 20.4277 16.8899 20.3874 16.8301C20.3472 16.7703 20.3222 16.7014 20.3148 16.6297C20.3074 16.558 20.3178 16.4855 20.3449 16.4187L23.5295 8.56216Z" fill="white"/>
<path d="M20.9932 23.2412C22.3399 23.2412 23.4317 22.1495 23.4317 20.8027C23.4317 19.456 22.3399 18.3643 20.9932 18.3643C19.6464 18.3643 18.5547 19.456 18.5547 20.8027C18.5547 22.1495 19.6464 23.2412 20.9932 23.2412Z" fill="white"/>
</g>
<defs>
<clipPath id="clip0_342_9536">
<rect width="35" height="35" fill="white"/>
</clipPath>
</defs>
</svg>
